<?xml version="1.0" encoding="UTF-8"?>
<svg version="1.1" viewBox="0 0 2048 2048" width="46" height="46" xmlns="http://www.w3.org/2000/svg">
<path transform="translate(144,353)" d="m0 0h1759l19 2 17 4 19 7 17 9 14 10 10 9 6 5 7 8 10 13 9 16 6 13 7 21 4 19v1069l-6 26-7 20-10 19-8 11-9 11-14 14-14 10-17 10-20 8-20 5-14 2-14 1h-1742l-18-1-25-5-21-8-17-9-14-10-13-12-8-8-10-13-8-13-7-14-6-17-5-19-1-5v-1075l6-24 8-21 10-18 12-16 12-13 12-10 15-10 17-9 24-8 17-3z" fill="#FE4F52"/>
<path transform="translate(326,553)" d="m0 0 7 1 5 6 6 14 12 36 12 35 6 18 18 1 90 1 8 5 3 5v9l-7 8-15 12-17 12-22 16-16 12-11 9v7l8 25 17 54 5 17v7l-3 5-7 5h-7l-11-6-8-6-15-11-14-10-10-7-11-8-19-13-1-1h-5l-8 6-14 10-19 13-8 6-18 13-19 13-3 1h-8l-6-4-4-6 1-10 12-39 20-62-5-2-16-12-17-13-18-13-16-12-13-10-6-6v-8l4-6 5-4 3-1 87-1 20-1 9-24 15-46 10-28 5-8 5-3z" fill="#FFDF62"/>
<path transform="translate(642,454)" d="m0 0 4 2 3 9 6 27 1 7 15 1 26 4 3 2v6l-27 16-8 5-1 5 6 30v10l-1 1h-7l-14-13-8-7-7-6-6 1-12 7-14 7-9 4-3-1-1-6 10-24 6-12v-4l-10-8-10-10-6-5-4-6 1-5h16l28 3 15-29 4-8z" fill="#FFDF62"/>
<path transform="translate(727,757)" d="m0 0 4 2 10 19 7 15v4l13-1 24-2h9l2 2-1 5-24 24h-2v2h-2v7l13 30 1 9-1 1h-6l-16-8-16-9-7 1-12 11-8 7-9 7h-5l-1-2v-8l5-29 1-8-21-11-6-4-9-5-2-5 1-2 25-5 16-2 3-1 5-18 5-22z" fill="#FFDF62"/>
<path transform="translate(646,884)" d="m0 0h5l1 1 1 7 1 36 9 4 28 10 5 3-1 5-5 3-34 12-1 1-1 14-1 27-1 3-5 1-5-4-10-13-10-14-2-2-7 1-26 8-4 1h-8l-1-5 13-20 7-10 3-4-1-5-10-13-10-15-2-4v-5h7l25 7 9 3h5l10-13 13-18z" fill="#FFDF62"/>
<path transform="translate(718,587)" d="m0 0h7l10 12 12 17 2 4 7-1 20-6 13-4h6v7l-8 12-12 17-2 2v5l8 10 14 22v6l-1 1-9-1-27-8-9-1-12 15-8 11-6 7-5-1-1-4-2-40-12-5-21-8-8-4-1-4 11-5 28-10 4-2v-19l1-24z" fill="#FFDF62"/>
</svg>
