<?xml version="1.0" encoding="UTF-8"?>
<svg version="1.1" viewBox="0 0 2048 2048" width="46" height="46" xmlns="http://www.w3.org/2000/svg">
<path transform="translate(144,353)" d="m0 0h1759l19 2 17 4 16 6 16 8 14 9 10 8 10 9 7 8 10 13 9 16 6 13 7 21 4 19v1069l-6 26-7 20-10 19-8 11-9 11-14 14-14 10-17 10-20 8-20 5-14 2-15 1h-1740l-19-1-25-5-21-8-17-9-14-10-13-12-8-8-10-13-8-13-7-14-6-17-5-19-1-5v-1075l6-24 8-21 10-18 12-16 12-13 12-10 15-10 17-9 24-8 17-3z" fill="#FEE25E"/>
<path transform="translate(1262,1245)" d="m0 0 1 2h777l8 1v310l-6 26-7 20-10 19-8 11-9 11-14 14-14 10-17 10-20 8-20 5-14 2-15 1h-1740l-19-1-25-5-21-8-17-9-14-10-13-12-8-8-10-13-8-13-7-14-6-17-5-19-1-5v-313l3-1h782l-2 10-20 63-12 39-7 21-18 57-6 21v8l4 8 5 4 7 3 10-1 8-4 36-26 34-24 19-14 14-10 17-12 11-8 20-14 18-13 17-12 18-13 34-24 18-13 13-9 5 2 36 26 10 7 18 13 10 7 18 13 17 12 18 13 17 12 18 13 14 10 17 12 18 13 17 12 36 26 9 5 4 1h7l7-3 5-5 3-5 1-9-4-15-15-48-10-31-19-60-14-45-4-12z" fill="#FD4E52"/>
<path transform="translate(1022,565)" d="m0 0 8 1 6 4 5 5 5 10 24 73 42 126 6 17 14 41 12 35 6 18 4 1 316 3 20 1 6 3 5 5 4 9v9l-4 7-11 10-17 12-133 98-16 12-18 13-16 12-38 28-21 16-2 2 2 9 18 57 13 41 6 21 18 56 20 64 21 66 2 9-1 9-6 9-6 4-4 1h-7l-8-3-12-8-36-26-17-12-18-13-14-10-17-12-18-13-14-10-18-13-17-12-14-10-18-13-10-7-18-13-10-7-18-13-5-2-19 13-16 12-20 14-14 10-18 13-20 14-18 13-14 10-17 12-11 8-17 12-19 14-20 14-17 12-19 14-13 9-9 3-9-1-8-5-5-7-1-3v-8l7-24 20-63 14-45 10-31 12-38 6-21 18-56 13-42-2-4-14-10-20-15-14-10-20-15-18-13-13-10-18-13-13-10-17-12-16-12-19-14-20-15-11-8-38-28-12-9-7-6-4-8v-10l5-10 6-5 11-2 217-2 116-1 3-10 13-38 12-36 7-20 67-201 6-15 6-7z" fill="#FDFCFC"/>
<path transform="translate(1119,799)" d="m0 0h547l382 1v448h-776l-9-1-4-11-20-62-11-35 1-4 8-7 38-28 16-12 19-14 18-13 21-16 14-10 114-84 15-11 8-7 4-7v-9l-5-10v-2l-4-2-5-2-20-1-229-2-89-1-3-2-21-62-10-30z" fill="#7DB001"/>
<path transform="translate(0,799)" d="m0 0h930l-1 6-24 72-7 19-2 1-331 3-11 2-5 4-5 10v10l4 8 12 10 14 10 19 14 12 9 18 13 32 24 19 14 18 13 16 12 18 13 13 10 18 13 20 15 14 10 20 15 9 7-3 12-23 72-9 27-3 1h-782z" fill="#7DB001"/>
</svg>
