<?xml version="1.0" encoding="UTF-8"?>
<svg version="1.1" viewBox="0 0 2048 2048" width="46" height="46" xmlns="http://www.w3.org/2000/svg">
<path transform="translate(140,352)" d="m0 0h1759l22 2 17 4 19 7 19 10 14 10 10 9 13 13 12 17 9 16 6 16 6 23 2 10v1069l-7 30-5 15-8 16-10 15-9 11-12 12-14 11-15 9-17 8-19 6-23 4-47 1-1725-1-18-3-20-6-18-8-16-10-14-11-15-15-13-18-9-16-6-15-7-27-1-6v-1079l9-31 9-19 7-11 9-12 11-12 12-11 16-11 21-11 18-6 18-4z" fill="#FD5056"/>
<path transform="translate(0,1179)" d="m0 0h2048v379l-7 30-5 15-8 16-10 15-9 11-12 12-14 11-15 9-17 8-19 6-23 4-47 1-1725-1-18-3-20-6-18-8-16-10-14-11-15-15-13-18-9-16-6-15-7-27-1-6z" fill="#FD5259"/>
<path transform="translate(140,352)" d="m0 0h1759l22 2 17 4 19 7 19 10 14 10 10 9 13 13 12 17 9 16 5 13v4h-67l-1019-1v588l-5 14-7 8-14 9-9 1h-880l-15-2v-2l-8-2-8-7-1-3-4-4-2-4v-571l9-31 9-19 7-11 9-12 11-12 12-11 16-11 21-11 18-6 18-4z" fill="#40499C"/>
<path transform="translate(953,869)" d="m0 0h1095v310h-2048v-127l2 1 2 6 3 1 3 5 7 5 6 2v2l15 1h880l9-1 11-7 7-6 5-10 2-7z" fill="#FD5157"/>
<path transform="translate(0,1489)" d="m0 0h2048v69l-7 30-5 15-8 16-10 15-9 11-12 12-14 11-15 9-17 8-19 6-23 4-47 1-1725-1-18-3-20-6-18-8-16-10-14-11-15-15-13-18-9-16-6-15-7-27-1-6z" fill="#FBFBFB"/>
<path transform="translate(0,1179)" d="m0 0h2048v104h-2048z" fill="#FD5056"/>
<path transform="translate(0,1052)" d="m0 0 2 1 2 6 3 1 3 5 7 5 6 2v2l15 1h2010v104h-2048z" fill="#FBFBFB"/>
<path transform="translate(0,1283)" d="m0 0h2048v102h-2047l-1-1z" fill="#FBFBFB"/>
<path transform="translate(8,1592)" d="m0 0h2031l-1 6-7 16-10 16-11 14-13 13-14 11-15 9-17 8-19 6-23 4-47 1-1725-1-18-3-20-6-18-8-16-10-14-11-15-15-13-18-9-16z" fill="#FD5056"/>
<path transform="translate(953,456)" d="m0 0h1087l6 23 2 10v70l-1 1h-1085l-8-1-1-1z" fill="#FBFAFA"/>
<path transform="translate(953,765)" d="m0 0 1094 1 1 1v102l-73 1h-880l-142-1z" fill="#FE5056"/>
<path transform="translate(953,663)" d="m0 0h1095v104l-1094-1-1-1z" fill="#FBFAFA"/>
<path transform="translate(953,869)" d="m0 0h1095v103l-3 1-38-1h-977l-76-1-1-1z" fill="#FBFBFB"/>
<path transform="translate(915,352)" d="m0 0h984l22 2 17 4 19 7 19 10 14 10 10 9 13 13 12 17 9 16 5 13v4h-67l-1019-1-1-58-2-20-6-12-11-8-6-3-1-1-11-1z" fill="#FD5056"/>
<path transform="translate(27,1176)" d="m0 0h953l1067 1 1 2h-2048v-2z" fill="#EEC4CA"/>
<path transform="translate(130,1589)" d="m0 0h1822l82 1 5 1v1h-2030l3-2z" fill="#EEC1C7"/>
<path transform="translate(995,557)" d="m0 0h983l70 1-1 2h-1085l-8-1v-1z" fill="#EFC8CD"/>
<path transform="translate(953,869)" d="m0 0h1095v1l-65 1-4 1-86 1h-773l-90-1-58-1-18-1v100h-1z" fill="#EEC5CA"/>
<path transform="translate(95,922)" d="m0 0 4 2 7 21v2l27 1 2 1-1 5-14 11-5 4 1 5 5 16v6l-4 1-19-13-6 1-17 12h-4v-7l6-19-2-4-12-9-6-5v-4l4-1 22-1 2-1 8-22z" fill="#FAF7F7"/>
<path transform="translate(94,555)" d="m0 0 5 1 8 23 25 1 3 2-2 5-18 14 2 9 4 13v5l-3 1-6-3-11-8-3-2-5 1-13 9-5 3h-4v-7l3-9 3-12-9-7-11-9v-4l6-1 21-1 3-5 5-16z" fill="#FAF6F6"/>
<path transform="translate(284,555)" d="m0 0 5 1 6 16 2 7 26 1 2 1-1 5-8 7-11 8 3 11 3 9v7h-6l-10-8-7-4-5 1-16 11h-6l1-7 6-21-4-2-14-10-2-2v-5l3-1 24-1 7-20z" fill="#FAF7F7"/>
<path transform="translate(665,923)" d="m0 0 5 1 4 10 3 11v3h27l2 1-1 5-10 8-8 6h-2l7 22v6h-6l-12-9-5-3-6 1-15 11h-6l1-9 5-16-2-4-17-13-1-5 3-1 26-1 1-6 6-17z" fill="#FBF7F8"/>
<path transform="translate(665,555)" d="m0 0 5 1 7 21v3h27l2 4-4 5-15 11-1 4 6 18v6l-3 1-7-4-13-9-6 1-15 11h-6l1-9 5-16-2-4-16-12-1-1v-5l3-1 24-1 7-21z" fill="#FBF7F8"/>
<path transform="translate(856,922)" d="m0 0 4 2 3 7 5 16 27 1 1 5-8 7-11 8h-2l7 21v7l-7-1-13-10-7-1-17 12-5 1-1-1v-6l3-8 3-9v-5l-18-13-1-6 2-1 26-1 2-9 5-13z" fill="#FBF7F7"/>
<path transform="translate(285,922)" d="m0 0 4 2 6 16 2 7 27 1 1 5-8 7-11 8-1 3 4 11 3 10-1 5-4-1-7-4-11-8-7 1-14 10-7 1v-6h2l1-8 3-9v-5l-18-13-1-6 1-1 26-1 7-20z" fill="#FBF7F8"/>
<path transform="translate(190,737)" d="m0 0 4 2 5 13 3 10 25 1 4 2-3 5-12 9-6 5 1 5 5 16v7l-6-1-11-9-8-4-7 4-11 8-7 1 1-9 4-12 1-8-4-2-14-10-2-2v-4l3-1 25-1 6-18 3-6z" fill="#FAF7F7"/>
<path transform="translate(571,737)" d="m0 0 4 2 7 21v3h26l4 2-2 4-13 10-4 3h-2l1 8 5 16v5l-4 1-18-13h-6l-17 12-4 1-1-1 1-9 5-18-11-9-8-6-2-4 6-2 22-1 4-10 5-13z" fill="#FAF7F7"/>
<path transform="translate(475,555)" d="m0 0h4l9 24 25 1 3 2-2 5-16 12-3 2 3 9 4 14-1 4-7-1-9-7-7-4-5 1-16 11-5 1v-8l3-9 3-11-13-10-8-7 1-3 5-1 24-1 1-6 5-16z" fill="#FBF7F7"/>
<path transform="translate(856,799)" d="m0 0 4 2 6 16 2 7 27 2 1 5-10 8-9 6v6l5 15v8l-6-1-15-11-5-1-13 9-7 4-4-1 1-7 5-16v-5l-17-12-3-5 2-2 26-2 9-24z" fill="#FAF7F7"/>
<path transform="translate(570,615)" d="m0 0 5 1 3 10 3 8 2 5 27 2 1 3-5 5-11 9-5 5 3 7 4 13v5l-4 1-6-4-10-7-4-2-4 1-13 9-5 3h-4v-7l6-19-2-4-14-10-4-4v-4l27-2 4-9 5-14z" fill="#FBF7F7"/>
<path transform="translate(380,859)" d="m0 0 5 3 3 10 3 8 1 4 27 2 2 4-12 10-6 4h-2v7l5 15 1 7-5 1-17-12-5-1-19 13-5-1 2-9 4-14v-5l-17-12-2-2v-4l2-1 26-1 3-11 5-14z" fill="#FAF7F7"/>
<path transform="translate(665,677)" d="m0 0 4 1 3 6 6 18 26 1 3 3-5 5-10 8-5 2-1 6 6 18v6l-7-1-12-9-6-3-4 2-16 11h-5l1-9 5-18v-2l-4-2-14-10-2-2 1-5h27l3-11z" fill="#FAF7F7"/>
<path transform="translate(189,615)" d="m0 0 5 1 4 10 4 13 27 2 1 4-9 8-10 7-1 4 6 18v6l-4 1-19-13-5 1-17 12-5-1 1-8 5-16-1-4-17-13-2-5 1-1 27-2 5-15z" fill="#FBF7F8"/>
<path transform="translate(856,554)" d="m0 0 4 2 5 13 3 10 27 1 1 5-9 8-10 7h-2l7 21v7l-7-1-12-9-4-2-5 1-16 11-5 1-1-1 1-7 5-16v-5l-18-13-1-5 4-2 23-1 8-22z" fill="#FBF7F8"/>
<path transform="translate(189,860)" d="m0 0 5 1 6 17 1 7 27 1 2 1-1 5-19 14 1 6 5 16v6l-6-1-15-11-5-1-12 8-7 5-5-1 1-8 5-17-2-4-17-12-1-5 2-1 26-2 3-8 5-15z" fill="#FBF7F7"/>
<path transform="translate(665,800)" d="m0 0 5 1 7 21v3l27 1 2 1-1 5-15 11-4 3 2 9 4 13v5l-4 1-19-13-5 1-16 11-5 1-1-1 1-9 5-17-5-5-14-10-1-5 1-1 16-1h11l3-10 5-14z" fill="#FAF7F8"/>
<path transform="translate(379,615)" d="m0 0 5 1 5 12 3 12h18l10 1v5l-9 7-10 7v6l5 15 1 6-1 1-7-1-12-9-4-2-5 1-14 10-4 2-4-1 1-6 5-17-1-5-10-8-7-5-1-5 1-1 26-2 4-10z" fill="#FBF7F8"/>
<path transform="translate(476,922)" d="m0 0 3 1 7 19 1 6h27l2 4-5 5-13 10-3 2 3 9 3 10v8l-7-1-10-8-5-3-6 1-16 11h-5v-7l6-18-2-4-14-10-4-4v-4l5-1 24-1 1-8 6-16z" fill="#FBF8F8"/>
<path transform="translate(476,431)" d="m0 0 3 1 8 23v2l26 1 3 2-2 4-10 8-8 6 1 7 4 13 1 6-1 2-5-1-18-12-4 1-13 9-5 3h-4v-8l5-15v-6l-14-10-6-5v-3l4-1 26-2 1-7 6-16z" fill="#FAF7F7"/>
<path transform="translate(380,737)" d="m0 0 4 1 8 22v3h26l3 2-2 4-11 9-7 5 1 8 5 17-1 3h-5l-11-8-8-5-4 2-13 9-3 2h-5l1-10 4-13v-5l-16-12-3-3v-4l2-1 26-1 3-11 5-13z" fill="#FAF7F7"/>
<path transform="translate(665,432)" d="m0 0h4l6 15 2 10 27 1 2 4-5 5-15 11 2 9 4 13v6l-6-1-14-10-3-2-5 1-17 12-5-1 1-8 5-17-2-4-17-12-1-5 2-1 26-2 8-23z" fill="#FAF7F7"/>
<path transform="translate(570,860)" d="m0 0h4l4 11 4 12v2l26 1 3 2-2 4-10 8-8 6 2 10 4 13-1 5-5-1-17-12-5 1-16 11-6 1v-7l6-19-1-3-14-10-5-4-1-3 3-2 25-2 2-2 6-20z" fill="#FBF7F8"/>
<path transform="translate(94,677)" d="m0 0 4 1 3 6 5 15v3l27 1 3 3-5 5-9 7-7 5 1 6 5 16v6l-3 1-21-14-5 2-16 11-4 1-1-1 1-9 5-18-4-4-15-11-2-4 5-2 23-1 4-8 4-13z" fill="#FAF7F7"/>
<path transform="translate(856,677)" d="m0 0 4 1 7 20 1 5h26l3 2-2 4-13 10-5 4 1 8 4 13v7h-5l-15-11-6-2-14 10-4 3h-6l1-8 5-15v-5l-16-12-4-4 1-3 2-1 24-1 2-1 4-14z" fill="#FBF7F8"/>
<path transform="translate(476,799)" d="m0 0 4 2 6 19 2 4 7 1 19 1 2 1-1 4-7 6-11 8h-2l6 21 1 6-2 2-5-1-13-10-4-2-4 1-18 12h-4v-8l3-9 2-7v-5l-18-13-2-4 3-2 27-2 2-10 3-9z" fill="#FBF7F8"/>
<path transform="translate(94,800)" d="m0 0 5 1 6 18 2 5 7 1 19 1 3 3-7 7-9 6-5 4 2 9 4 13v5l-4 1-6-4-13-9-5 1-16 11-5 1-1-1v-6l3-9 3-12-16-12-4-4 1-4 28-2 3-12 4-11z" fill="#FBF7F7"/>
<path transform="translate(284,800)" d="m0 0 5 1 7 19 1 4 27 2 1 5-13 10-7 5 1 5 6 19-1 4-6-1-16-12-6 1-15 11-6 1-1-3 7-26-4-2-14-10-2-2 1-5 26-2 6-17z" fill="#FBF7F8"/>
<path transform="translate(761,737)" d="m0 0 4 2 6 16 2 7 25 1 3 1-1 5-18 14-1 4 6 17v7h-5l-14-10-5-3-5 2-15 11-5 1-1-1 1-9 4-11 1-8-18-13-2-5 2-2 26-1 8-22z" fill="#FBF7F8"/>
<path transform="translate(475,677)" d="m0 0 4 1 9 24 26 1 2 1-1 4-9 8-10 7 1 8 5 16-1 4-6-1-16-12-5 1-16 11-3 2h-3v-8l5-16v-5l-13-10-7-6 1-3 2-1 24-1 2-1 7-20z" fill="#FBF7F7"/>
<path transform="translate(760,615)" d="m0 0 5 1 6 16 2 7 27 2 1 4-5 5-15 11 1 6 6 18v3h-7l-9-7-8-5-5 1-16 11-5 1-1-1v-5l6-18-1-5-17-13-1-1v-5l20-1 7-1 7-20z" fill="#FBF8F8"/>
<path transform="translate(760,860)" d="m0 0 5 1 6 16 1 8 27 1 2 1-1 5-19 14 2 9 4 12v7l-6-1-17-12-5 1-17 12-5-1 1-6 5-18-1-4-16-12-3-3 2-4h26l3-10 5-15z" fill="#FBF8F8"/>
<path transform="translate(189,492)" d="m0 0 4 1 4 8 5 15 3 1 23 1 2 2-1 4-13 10-6 4 2 9 4 13v6l-2 1-10-6-10-8-6 1-15 11-6 1-1-4 6-21-1-4-13-9-6-5v-4l3-1 24-1 4-9 5-15z" fill="#FAF7F7"/>
<path transform="translate(570,492)" d="m0 0 4 1 4 9 4 13v2l26 1 3 2-2 4-11 9-7 5 1 7 5 16-1 5-6-1-16-12-5 1-16 11-6 1v-7l5-16v-6l-16-11-4-4 1-3 3-1 23-1 3-3 4-13z" fill="#FAF7F7"/>
<path transform="translate(285,677)" d="m0 0h3l6 14 3 11 25 1 4 2-3 5-16 12-2 2 1 4 5 16v7h-5l-14-10-5-3-5 2-15 11-4 1-2-2 2-10 4-13-1-5-15-11-4-4 2-4 26-1 7-20z" fill="#FBF8F8"/>
<path transform="translate(380,492)" d="m0 0 4 1 4 10 4 13v2h26l3 2-2 4-13 10-5 4 1 7 5 18-1 3-6-1-14-10-7-1-13 9-5 3h-4v-8l5-15v-6l-12-8-7-6v-4l2-1 26-1 3-11 5-13z" fill="#FBF7F8"/>
<path transform="translate(856,431)" d="m0 0 4 2 7 19 1 6h26l2 1-1 5-12 9-6 4v6l5 16v7h-5l-15-11-7-3v2l-11 7-5 4-6 1-1-1 1-7 5-16v-5l-13-9-7-6 1-3 2-1 23-1 3-3 6-17z" fill="#FBF7F8"/>
<path transform="translate(94,432)" d="m0 0h4l7 19 2 5 7 1 18 1 3 2-2 4-10 8-8 6 2 9 4 14-1 5-4-1-7-4-11-8-5 1-16 11-5 1-1-1v-6l3-9 3-12-16-12-5-5 3-3 25-2 5-10 3-10z" fill="#FAF6F7"/>
<path transform="translate(760,492)" d="m0 0 5 1 8 23 3 1 23 1 2 1-1 5-13 10-5 3-1 4 6 18v7h-5l-12-9-6-4-5 1-15 11-6 1-1-4 6-21-1-4-14-10-5-5 1-3 2-1 23-1 3-3 7-20z" fill="#FBF7F8"/>
<path transform="translate(284,432)" d="m0 0 5 1 6 16 2 7 26 2 2 1-1 5-16 12-3 2 1 5 6 19-1 4-6-1-16-12h-5l-5 4-13 9-5-1 2-10 5-18-4-2-14-10-2-2 1-5h26l3-10z" fill="#FBF7F8"/>
<path transform="translate(25,1074)" d="m0 0 13 1h469l409 1v1l-14 1h-754l-117-1-6-2z" fill="#F3D8D9"/>
<path transform="translate(50,391)" d="m0 0 2 1-11 11-8 10-8 11-8 13-1-2 7-12 10-14 12-13z" fill="#F2C3C7"/>
<path transform="translate(50,391)" d="m0 0 2 1-15 15 1-4z" fill="#F99CA0"/>
</svg>
